<?xml version="1.0" encoding="UTF-8"?>
<svg id="_레이어_1" xmlns="http://www.w3.org/2000/svg" xmlns:xlink="http://www.w3.org/1999/xlink" version="1.1" viewBox="0 0 645.7 265.4">
  <!-- Generator: Adobe Illustrator 29.0.0, SVG Export Plug-In . SVG Version: 2.1.0 Build 186)  -->
  <defs>
    <style>
      .st0 {
        fill: url(#_무제_그라디언트);
      }

      .st1 {
        fill: url(#_무제_그라디언트_2);
      }

      .st2 {
        fill: #00304e;
      }
    </style>
    <linearGradient id="_무제_그라디언트" data-name="무제 그라디언트" x1="183.3" y1="132.4" x2="462.5" y2="132.4" gradientTransform="translate(0 265.3) scale(1 -1)" gradientUnits="userSpaceOnUse">
      <stop offset=".2" stop-color="#00b4f2"/>
      <stop offset="1" stop-color="#54df00"/>
    </linearGradient>
    <linearGradient id="_무제_그라디언트_2" data-name="무제 그라디언트 2" x1="328.4" y1="261.1" x2="328.4" y2="201.3" gradientTransform="translate(0 265.3) scale(1 -1)" gradientUnits="userSpaceOnUse">
      <stop offset="0" stop-color="#00c9ff"/>
      <stop offset="1" stop-color="#54df00"/>
    </linearGradient>
  </defs>
  <g>
    <path class="st2" d="M436.7,109.8l-29.1-21.1-59.9,19.4-18.8,17.7-21.7-4.2-32.5-32.9-27.4-2.8-48.5,42.8,24.2,46.8,38.9,13.1-35.5,25.3,90.2,35.9-4,15.7,106-51.6-28.5-21.4,40.8-22.6,5.7-59.9h0ZM269.4,183.2l38.4-41.4,11.1,6.2-49.5,35.2h0Z"/>
    <path class="st2" d="M395.7,218.5c-6.7,0-13.4-1.2-20.2-3.5-8.5-2.9-16.3-8-23.6-15.4-8-8.1-16.2-16.3-24.2-24.2-1.6-1.6-3.2-3.2-4.9-4.9-2.8,2.8-5.6,5.6-8.3,8.3-7.6,7.6-15.4,15.4-23.3,23-11.3,10.9-26.2,16.6-41.3,16.6s-18.8-2.2-27.6-6.7c-13.5-6.9-23.1-18-28.6-32.9-3.8-10.4-6.9-19.6-9.4-28.3-2.4-8.4-4.2-16.9-5.8-24.9-.7-3.8-1.1-7.4-1.4-11-.1-1.4-.2-2.7-.4-4.1,0-.4,0-.8-.1-1.2-.2-1.7-.4-3.7-.3-5.8.1-2.5.3-5.1.6-7.5.2-2.4.4-4.7.5-7,.4-6.9,2.9-12.8,5-17.1,6.1-12.4,16.5-20.2,31.2-23.4,12.4-2.7,24.7-1.4,33.9,0,3.2.5,6.5,1.1,9.6,1.7,1.4.3,2.8.5,4.2.8,2.1.4,3.9,1.8,4.9,3.7,1,1.9,1,4.2,0,6.1v.2c-.1,0-.2,0-.2.1.3,0,.6.2.8.3,12.7,4.4,22.3,12.8,29.2,19.7,9,8.9,18.1,18.1,26.9,27,1.9-2,3.8-4,5.8-6,1.5-1.5,3-3,4.5-4.5,6.7-6.7,13.6-13.7,20.6-20.4,7.9-7.6,15.9-12.7,24.4-15.5.6-.2,1.1-.4,1.7-.5-.4-.8-.7-1.8-.7-2.8-.2-3.3,2-6.3,5.3-7.1.6-.1,1.2-.3,1.8-.5,1.5-.4,3-.8,4.6-1.1,11-2.2,20.1-3.1,28.6-2.8,8.9.3,16.5,1.9,23.3,5,11.7,5.3,19.6,14.6,23.4,27.5,2.5,8.3,3.4,17.3,2.9,27.4-.9,16.4-4.5,33.9-11.5,54.8-2.6,7.7-4.9,14.6-7.9,21.5-5.8,13.5-15.8,23.5-29.8,29.8-8,3.6-16.1,5.4-24.4,5.4h0ZM322.9,154.4h.2c3.3.1,5.4,2.2,6.8,3.5,2.6,2.6,5.1,5.1,7.7,7.6,7.9,7.9,16.2,16.1,24.2,24.3,5.9,5.9,11.8,9.9,18.3,12.1,11.9,4.1,23.1,3.6,34.4-1.4,10.7-4.8,18.3-12.4,22.7-22.6,2.7-6.4,5-13,7.5-20.4,6.6-19.8,10-36,10.8-51.2.4-8.5-.3-15.9-2.4-22.7-2.7-9-7.9-15.2-15.9-18.9-5-2.3-10.7-3.5-17.6-3.7,4.2,2.9,7.9,6.5,11,10.8,7.8,10.7,9.5,22.8,10.1,32.1.5,8.3-.2,17-2.1,26.7-1.1,5.7-2.5,11.5-4.1,17.8-.8,3.3-1.9,6.4-2.9,9.4-.2.8-.5,1.5-.8,2.3-.3.8-.5,1.6-.8,2.4-1.2,4-2.7,8.5-5.5,12.7-5.3,7.9-13.9,12.9-23.6,13.9-9.5,1-18.8-2.2-25.4-8.8-8.1-8-16.2-16.1-24.1-24-3.4-3.4-6.8-6.8-10.2-10.2-2-2-3.1-4.3-3.1-6.7s1-4.7,3-6.7c7.3-7.2,14.7-14.7,21.9-21.9,2.1-2.2,4.3-4.3,6.4-6.5,4-4,8.8-8.6,14.9-12,5.2-2.9,10.5-4.1,15.9-3.7,5.4.4,10.4,2.5,15.1,6.3.8.6,1.5,1.3,2.2,1.9-1.6-6.9-4.8-12.5-9.6-17.1-7-6.7-14.8-8.1-25.1-4.6-6.5,2.2-12.8,6.2-19.2,12.4-6.9,6.6-13.7,13.5-20.3,20.1-1.5,1.5-3,3-4.5,4.5-1.9,1.9-3.6,3.8-5.5,5.8-1.1,1.2-2.2,2.3-3.4,3.5-2.3,2.4-4.8,2.9-6.5,2.9h0c-2.5,0-4.8-1.1-6.9-3.1l-1-1c-9.5-9.5-19.3-19.4-29-29-8.9-8.8-16-13.7-24-16.4-5.8-2-11.1-2.1-16-.4-6.1,2.2-11,6.5-14.4,12.9-1.6,2.9-2.8,6-3.7,9.2.2-.2.4-.4.7-.6,8.1-7.3,17.6-9.3,27.6-5.6,5.3,2,10.2,5,14.4,9.1,2.7,2.6,5.4,5.3,8,7.9,1.4,1.5,2.9,3,4.4,4.4,7.4,7.3,14.9,14.8,21.6,21.4,2.3,2.3,2.8,4.8,2.8,6.4,0,1.6-.5,4-2.8,6.2-.6.6-1.3,1.3-1.9,1.9-.5.5-1.1,1.1-1.6,1.6-8.9,8.9-17.8,17.8-26.7,26.6-.3.3-.5.5-.8.8-3.3,3.3-7,7.1-12.2,9.4-8.2,3.8-17.7,3.9-26.1.5-8.2-3.4-14.5-9.9-17.8-18.5-4.3-11.3-7.7-23.1-10-34.9-3.3-16.8-3.6-30-1-42.7,1.9-9.4,6.5-17.9,13.3-24.6,1.9-1.8,3.8-3.5,6-5-3.1.1-6.3.5-9.4,1.2-10.4,2.2-17.5,7.5-21.6,15.9-2.3,4.8-3.4,8.2-3.6,11.7-.1,2.5-.4,5-.6,7.4-.2,2.4-.4,4.7-.5,7,0,.9,0,2.1.2,3.4,0,.5.1.9.2,1.4.1,1.4.3,2.9.4,4.3.3,3.4.6,6.5,1.2,9.5,1.5,7.7,3.2,15.8,5.5,23.7,2.4,8.3,5.4,17.3,9.1,27.3,4.3,11.7,11.5,20,21.9,25.4,17.6,9,38.9,6,52.9-7.6,7.8-7.5,15.6-15.3,23.1-22.8,3.7-3.7,7.5-7.5,11.2-11.2,1.3-1.3,3.4-3.4,6.9-3.4h0ZM354.1,139.4c2.4,2.4,4.7,4.7,7.1,7.1,7.9,7.9,16,16,24.1,23.9,3.7,3.6,8.9,5.4,14.3,4.9,5.6-.6,10.4-3.4,13.4-7.9,1.7-2.6,2.7-5.6,3.8-9.1.3-.8.5-1.7.8-2.6.2-.8.5-1.6.8-2.3,1-2.9,1.9-5.7,2.6-8.5,1.5-6,2.8-11.6,3.9-17-2.9.1-5.6-1.5-6.7-4.2-.2-.6-.5-1.1-.7-1.6-.4-.9-.7-1.6-1-2.3-2.3-4.8-5.2-10.2-10-14.1-4.9-3.9-9.9-4.3-15.5-1.2-4.5,2.5-8.4,6.2-11.7,9.6-2.1,2.2-4.3,4.3-6.4,6.5-6.1,6.2-12.5,12.6-18.8,18.8h0ZM220.7,127c.2,1.2.4,2.5.7,3.7,2.2,11.1,5.3,22,9.4,32.6,2.4,6.3,6.8,9.2,10.1,10.6,4.8,2,10.5,1.9,15.1-.3,2.9-1.3,5.5-3.9,8.2-6.6l.8-.8c8.9-8.9,17.8-17.8,26.7-26.6h0c-5.8-5.7-12-11.9-18.1-18-1.5-1.5-3-3-4.5-4.5-2.5-2.6-5.1-5.2-7.7-7.7-2.8-2.7-6-4.7-9.6-6-5.1-1.9-9.2-1-13.5,2.9-3.6,3.3-6.6,7.6-9.4,13.7-.5,1-.8,1.8-1.2,2.6-.7,1.4-1.7,2.2-2.1,2.5,0,0,0,0-.2.1-1.3,1.2-3.1,1.8-4.8,1.8h0Z"/>
    <path class="st0" d="M259.9,58.3c-4.6.6-9.3,1-13.9,1.8-16.4,2.8-29.2,15.6-32.5,31.9-2.7,13.5-1.5,26.8,1.1,40,2.3,11.5,5.5,22.8,9.7,33.8,5.9,15.5,22.6,19.6,34.6,14.1,4.4-2,7.7-5.5,11-8.9,8.9-8.9,17.8-17.8,26.7-26.6,1.2-1.2,2.4-2.5,3.6-3.7,1-1,.8-1.8,0-2.7-7.2-7.1-14.4-14.3-21.6-21.4-4.1-4.1-8.1-8.3-12.3-12.3-3.4-3.3-7.5-5.9-12-7.6-7.7-2.8-14.5-1.2-20.5,4.2-4.9,4.5-8.3,10-11,16-.4.8-.7,1.6-1.1,2.3,0,.2-.3.3-.7.7-.3-2.1-.8-3.8-.9-5.7-.8-10.6.9-20.8,6-30.3,4.1-7.6,10.1-13.3,18.2-16.2,6.8-2.4,13.8-2,20.6.4,10.5,3.6,18.8,10.4,26.6,18.1,10.1,10,20,20,30,30.1,1.2,1.2,2.3,1.6,3.5.3,3-3.1,5.9-6.3,9-9.4,8.3-8.3,16.5-16.7,24.9-24.8,6.3-6.1,13.4-11.2,21.8-14,12.1-4.1,22.8-2.6,32.1,6.2,8.5,8.1,12.1,18.4,12.9,29.8.3,4.9-.3,9.8-.5,14.8,0,.4-.2.7-.4,1.7-.7-1.7-1.2-2.9-1.8-4.1-2.9-6.2-6.4-12.1-11.9-16.5-7.1-5.7-15.2-6.3-23.2-1.9-5.1,2.8-9.3,6.7-13.3,10.8-9.4,9.5-18.8,19-28.3,28.4-1.4,1.4-1.2,2.4,0,3.6,11.4,11.4,22.9,22.8,34.4,34.1,11,10.8,29.8,8.7,38.4-4.1,2.8-4.1,3.9-8.8,5.4-13.4,1.2-3.7,2.5-7.4,3.5-11.2,1.5-5.8,2.9-11.6,4-17.4,1.7-8.2,2.5-16.5,2-24.9-.6-10.1-2.6-19.9-8.8-28.4-6.3-8.6-14.8-13.5-25-15.7-4.5-1-9.1-1.3-13.6-1.9,2-.5,4-1.1,6.1-1.5,8.9-1.8,18-3,27.1-2.7,7.1.2,14,1.3,20.6,4.3,10.2,4.7,16.5,12.6,19.7,23.2,2.4,8.2,3.1,16.6,2.6,25-.9,18.2-5.4,35.8-11.1,53-2.4,7.1-4.7,14.1-7.7,21-5.2,12.1-14.2,20.8-26.2,26.2-12.9,5.8-26.1,6.2-39.5,1.6-8.1-2.8-14.9-7.7-21-13.8-10.6-10.7-21.2-21.3-31.8-31.9-2-2-2.2-2-4.1-.1-11.4,11.4-22.8,22.9-34.4,34.1-16.3,15.7-40.7,19.1-60.9,8.8-12.3-6.3-20.5-16.3-25.3-29.1-3.4-9.2-6.5-18.4-9.3-27.8-2.3-8-4.1-16.1-5.7-24.3-.9-4.7-1.2-9.6-1.7-14.5-.2-2-.5-3.9-.4-5.9.3-4.8.8-9.7,1.1-14.5.3-5.2,2.1-9.9,4.3-14.4,5.4-11.1,14.6-17.1,26.4-19.7,10.5-2.3,21-1.5,31.4.1,4.5.7,9,1.7,13.5,2.5,0,0,0,.2-.1.2h0Z"/>
  </g>
  <path class="st2" d="M325.4,76.4c-1.6,0-3.1-1.1-3.4-2.8l-7-33.7c-.3-1.5.4-3,1.7-3.7,1.3-.7,3-.5,4.1.5l1.5,1.4-4.7-24.1c-.3-1.5.4-2.9,1.7-3.7L336.7.5c1.1-.6,2.6-.6,3.6.1,1.1.7,1.7,2,1.5,3.3l-6.8,56.5c-.2,1.3-1.1,2.5-2.4,2.9-1.2.4-2.6,0-3.5-.8l-.3,10.6c0,1.8-1.4,3.2-3.2,3.3-.1,0-.2,0-.3,0h0ZM328.7,51.8l.4.4v-.5c0,0-.2,0-.4.1h0ZM324.1,49.6l.3,1.3c.1,0,.2-.1.4-.2.1,0,.2,0,.4-.1l-1-1h0ZM324.9,15.2l5.3,27.1,3.9-32.5s-9.3,5.3-9.3,5.3Z"/>
  <polygon class="st1" points="338.4 3.5 321 13.4 327.9 48.4 318.5 39.3 325.4 73 326 53.9 331.6 60 338.4 3.5"/>
</svg>