<?xml version="1.0" encoding="UTF-8" ?>
<!DOCTYPE svg PUBLIC "-//W3C//DTD SVG 1.1//EN" "http://www.w3.org/Graphics/SVG/1.1/DTD/svg11.dtd">
<svg width="558pt" height="178pt" viewBox="0 0 558 178" version="1.1" xmlns="http://www.w3.org/2000/svg">
<g id="#05507dff">
<path fill="#05507d" opacity="1.00" d=" M 29.92 13.88 C 40.06 6.98 55.39 9.41 62.50 19.55 C 68.80 28.05 68.56 40.78 61.87 48.98 C 54.00 59.23 38.02 60.52 28.03 52.65 C 27.96 60.09 28.40 67.57 27.84 75.00 C 27.52 76.84 25.44 76.07 24.29 75.64 C 20.80 73.89 19.19 69.83 19.36 66.08 C 19.40 55.37 19.36 44.66 19.39 33.95 C 19.30 26.06 23.26 18.20 29.92 13.88 M 39.49 18.77 C 31.36 20.71 26.13 30.03 28.61 37.99 C 30.38 45.04 37.68 50.22 44.96 49.21 C 53.18 48.46 59.51 40.14 58.33 32.01 C 57.66 23.11 48.13 16.26 39.49 18.77 Z" />
<path fill="#05507d" opacity="1.00" d=" M 89.52 10.68 C 97.50 8.70 106.51 10.80 112.36 16.70 C 121.82 25.64 121.72 42.37 112.17 51.21 C 103.01 60.36 86.42 59.85 77.89 50.09 C 68.84 40.45 69.96 23.35 80.46 15.21 C 83.10 13.05 86.23 11.53 89.52 10.68 M 90.33 19.25 C 83.72 21.69 79.49 29.03 80.59 35.98 C 81.45 43.79 89.04 50.26 96.95 49.31 C 106.19 48.71 112.83 38.51 110.19 29.75 C 108.23 21.34 98.42 15.94 90.33 19.25 Z" />
<path fill="#05507d" opacity="1.00" d=" M 128.24 17.30 C 135.31 9.72 147.34 7.93 156.54 12.46 C 161.66 14.96 166.28 19.37 167.38 25.16 C 165.33 25.61 163.18 26.20 161.12 25.51 C 158.30 24.79 156.45 22.39 154.21 20.73 C 147.37 15.28 135.66 18.18 132.27 26.26 C 131.15 28.09 133.06 29.81 134.89 29.64 C 142.94 29.99 151.01 29.83 159.06 30.09 C 162.34 30.07 165.84 31.52 167.46 34.51 C 169.43 38.28 168.35 42.83 166.26 46.30 C 161.58 54.25 151.98 58.81 142.85 57.61 C 134.37 56.60 125.22 50.91 123.80 41.92 C 127.03 41.12 130.79 41.17 133.33 43.64 C 136.28 46.49 139.66 49.35 143.95 49.64 C 150.65 50.45 159.00 46.26 159.44 38.85 C 150.66 37.43 141.70 38.51 132.87 37.75 C 128.86 37.35 124.53 35.04 123.46 30.89 C 122.21 25.87 124.77 20.80 128.24 17.30 Z" />
<path fill="#05507d" opacity="1.00" d=" M 177.59 18.45 C 185.46 8.62 201.27 7.17 211.02 14.99 C 215.31 18.41 218.67 23.37 219.37 28.88 C 218.63 30.51 216.36 30.22 214.90 30.08 C 210.46 29.50 208.91 24.71 205.91 22.07 C 200.04 16.45 189.66 17.32 184.61 23.62 C 178.96 29.88 179.84 40.52 186.38 45.82 C 191.19 50.05 198.78 50.56 204.11 47.00 C 207.29 45.15 208.77 41.57 211.53 39.28 C 213.74 37.57 216.67 37.86 219.29 37.94 C 219.00 43.40 215.92 48.32 211.99 51.95 C 203.67 59.46 190.02 59.70 181.26 52.81 C 170.73 45.02 169.07 28.32 177.59 18.45 Z" />
<path fill="#05507d" opacity="1.00" d=" M 241.48 10.76 C 249.91 8.54 259.57 10.97 265.44 17.55 C 273.26 25.86 273.75 39.80 266.67 48.71 C 261.22 55.89 251.45 59.21 242.71 57.25 C 236.90 56.06 231.60 52.58 228.23 47.69 C 222.61 39.68 222.58 28.20 228.14 20.16 C 231.25 15.54 236.11 12.18 241.48 10.76 M 244.44 18.69 C 237.23 20.28 232.04 27.66 232.73 34.97 C 233.09 43.08 240.72 50.17 248.93 49.33 C 258.09 48.91 264.99 38.93 262.55 30.18 C 260.89 22.29 252.36 16.61 244.44 18.69 Z" />
<path fill="#05507d" opacity="1.00" d=" M 501.48 100.70 C 508.45 98.64 516.62 99.23 522.58 103.69 C 526.33 106.39 528.64 111.45 527.08 115.99 C 525.45 121.32 520.05 124.46 514.88 125.57 C 508.18 126.80 500.63 126.18 495.07 121.93 C 491.48 119.27 489.38 114.38 490.82 110.01 C 492.30 105.20 496.87 102.12 501.48 100.70 M 505.17 107.03 C 501.98 107.89 498.75 111.28 500.29 114.74 C 503.61 121.25 515.61 121.08 518.01 113.90 C 518.67 107.40 510.14 105.13 505.17 107.03 Z" />
<path fill="#05507d" opacity="1.00" d=" M 534.34 100.60 C 537.54 100.59 540.74 100.59 543.95 100.56 C 544.07 117.42 543.96 134.29 544.00 151.16 C 540.78 151.17 537.56 151.18 534.34 151.18 C 534.33 149.23 534.32 147.29 534.32 145.34 C 529.74 145.33 525.15 145.34 520.57 145.33 C 520.56 142.97 520.56 140.62 520.57 138.27 C 525.15 138.25 529.73 138.25 534.32 138.25 C 534.34 125.70 534.30 113.15 534.34 100.60 Z" />
<path fill="#05507d" opacity="1.00" d=" M 237.40 101.53 C 244.15 99.91 251.66 102.65 255.76 108.26 C 261.48 115.68 260.62 127.33 253.67 133.68 C 249.34 137.83 242.81 139.50 237.01 137.98 C 228.93 136.14 222.73 128.25 222.92 119.94 C 222.64 111.41 229.13 103.40 237.40 101.53 M 238.31 109.44 C 230.94 112.84 230.45 124.39 236.35 129.39 C 239.73 132.34 245.34 131.40 247.80 127.73 C 250.72 123.38 250.87 117.30 248.25 112.78 C 246.34 109.41 241.86 107.77 238.31 109.44 Z" />
<path fill="#05507d" opacity="1.00" d=" M 269.04 101.14 C 272.30 101.14 275.56 101.14 278.82 101.15 C 278.83 117.35 278.83 133.54 278.82 149.74 C 275.56 149.75 272.30 149.75 269.04 149.74 C 269.03 133.54 269.04 117.34 269.04 101.14 Z" />
<path fill="#05507d" opacity="1.00" d=" M 322.44 101.11 C 325.55 101.09 328.66 101.09 331.77 101.10 C 331.78 107.79 331.78 114.48 331.78 121.17 C 333.71 121.19 335.65 121.21 337.59 121.24 C 337.68 114.52 337.60 107.81 337.64 101.09 C 340.72 101.09 343.79 101.09 346.87 101.10 C 346.87 122.98 346.88 144.86 346.87 166.74 C 343.79 166.75 340.72 166.75 337.65 166.75 C 337.60 154.32 337.65 141.90 337.63 129.47 C 335.67 129.48 333.72 129.49 331.77 129.50 C 331.78 141.91 331.79 154.33 331.77 166.74 C 328.66 166.75 325.55 166.75 322.45 166.73 C 322.42 159.60 322.46 152.47 322.42 145.35 C 321.31 146.18 320.19 147.02 319.24 148.04 C 318.96 148.40 318.38 149.14 318.10 149.51 L 318.10 149.85 C 317.60 150.25 316.59 151.04 316.08 151.44 C 311.38 147.65 307.40 143.03 304.32 137.83 C 303.24 139.61 302.13 141.36 301.04 143.12 L 300.22 142.59 L 301.35 144.02 L 300.23 143.68 C 298.23 146.78 295.55 149.34 292.80 151.76 C 290.80 149.98 288.81 148.17 286.81 146.39 C 292.78 141.86 296.82 135.21 298.82 128.05 C 300.04 122.10 299.43 115.98 299.55 109.95 C 296.12 109.96 292.69 109.96 289.27 109.95 C 289.27 107.41 289.27 104.86 289.28 102.33 C 298.92 102.31 308.57 102.30 318.21 102.33 C 318.22 104.84 318.25 107.35 318.29 109.86 C 315.17 109.96 312.05 109.97 308.93 109.97 C 309.06 117.71 307.93 126.01 311.88 133.08 C 314.01 137.92 317.90 141.54 321.29 145.47 C 321.86 144.42 322.63 143.37 322.42 142.08 C 322.49 128.43 322.42 114.77 322.44 101.11 Z" />
<path fill="#05507d" opacity="1.00" d=" M 363.04 100.53 C 372.05 100.51 381.07 100.50 390.08 100.53 C 390.08 103.02 390.07 105.51 390.07 108.00 C 381.06 108.00 372.05 108.00 363.04 108.00 C 363.04 105.51 363.03 103.02 363.04 100.53 Z" />
<path fill="#05507d" opacity="1.00" d=" M 106.75 120.69 C 110.30 115.15 109.82 108.37 109.78 102.09 C 113.41 102.09 117.04 102.09 120.68 102.10 C 120.71 108.04 120.02 114.42 123.16 119.77 C 127.66 128.65 137.40 132.70 146.23 135.94 C 144.19 138.22 142.14 140.49 140.10 142.75 C 136.54 141.36 133.03 139.83 129.64 138.06 L 129.25 138.01 C 127.38 136.84 125.50 135.71 123.60 134.60 L 123.85 133.59 L 122.28 134.67 L 123.21 132.71 L 122.30 133.59 C 119.88 131.17 117.45 128.74 115.22 126.13 C 112.65 129.20 109.73 131.94 106.74 134.59 L 105.95 133.99 L 106.67 135.59 L 105.80 135.02 C 101.21 138.49 95.74 140.41 90.57 142.80 C 88.31 140.62 86.21 138.29 84.17 135.92 C 92.71 132.81 102.02 128.98 106.75 120.69 Z" />
<path fill="#05507d" opacity="1.00" d=" M 401.71 101.15 C 404.99 101.14 408.27 101.14 411.55 101.15 C 411.56 105.94 411.56 110.73 411.55 115.51 C 414.53 115.51 417.51 115.51 420.49 115.53 C 420.50 118.53 420.50 121.54 420.49 124.54 C 417.51 124.55 414.53 124.56 411.56 124.55 C 411.56 129.88 411.57 135.21 411.55 140.54 C 408.27 140.56 404.99 140.56 401.71 140.55 C 401.69 127.41 401.70 114.28 401.71 101.15 Z" />
<path fill="#05507d" opacity="1.00" d=" M 19.37 110.89 C 19.38 108.17 19.39 105.44 19.44 102.72 C 37.08 102.78 54.72 102.72 72.37 102.75 C 72.37 105.47 72.36 108.19 72.36 110.91 C 69.48 110.91 66.61 110.91 63.73 110.91 C 63.72 119.27 63.73 127.64 63.73 136.00 C 66.82 136.00 69.91 136.00 73.00 136.00 C 73.00 138.65 73.00 141.30 73.00 143.96 C 65.83 143.97 58.66 143.93 51.49 143.98 C 51.50 148.49 51.50 153.00 51.49 157.52 C 59.98 157.52 68.48 157.50 76.97 157.53 C 76.96 160.25 76.96 162.97 76.95 165.69 C 56.31 165.69 35.66 165.68 15.01 165.69 C 15.00 162.97 15.00 160.25 14.99 157.53 C 23.72 157.48 32.45 157.55 41.19 157.49 C 41.16 152.98 41.17 148.47 41.17 143.96 C 33.68 143.95 26.19 143.96 18.71 143.96 C 18.70 141.30 18.70 138.65 18.70 136.00 C 21.84 136.00 24.98 136.00 28.12 136.00 C 28.13 127.64 28.13 119.27 28.12 110.91 C 25.20 110.91 22.29 110.91 19.37 110.89 M 38.39 110.90 C 38.36 119.27 38.35 127.64 38.39 136.01 C 43.43 135.99 48.46 136.00 53.49 136.00 C 53.51 127.64 53.51 119.27 53.49 110.90 C 48.46 110.91 43.42 110.91 38.39 110.90 Z" />
<path fill="#05507d" opacity="1.00" d=" M 158.17 102.76 C 174.75 102.73 191.34 102.74 207.92 102.76 C 207.92 117.49 207.92 132.22 207.92 146.95 C 204.56 146.96 201.21 146.96 197.85 146.95 C 197.84 141.69 197.84 136.43 197.85 131.17 C 184.62 131.17 171.40 131.19 158.17 131.16 C 158.17 128.51 158.17 125.86 158.18 123.20 C 171.40 123.19 184.62 123.20 197.84 123.20 C 197.85 119.10 197.85 115.00 197.82 110.90 C 184.61 110.91 171.39 110.91 158.17 110.90 C 158.17 108.19 158.17 105.47 158.17 102.76 Z" />
<path fill="#05507d" opacity="1.00" d=" M 428.65 103.45 C 445.24 103.44 461.83 103.44 478.43 103.45 C 478.43 106.00 478.42 108.54 478.42 111.09 C 471.66 111.11 464.89 111.05 458.13 111.13 C 458.12 117.34 461.40 123.03 466.21 126.81 C 471.03 130.80 476.83 133.37 482.82 135.06 C 482.18 135.94 481.52 136.82 480.84 137.67 L 479.76 137.03 L 480.67 138.71 L 478.84 137.63 L 479.66 138.92 C 478.53 139.49 477.51 140.34 476.29 140.71 C 470.85 139.06 465.59 136.51 461.16 132.91 L 460.28 133.71 L 461.13 131.95 L 460.27 132.53 C 457.92 130.26 455.64 127.93 453.56 125.42 C 451.38 127.91 449.04 130.27 446.70 132.62 L 445.84 132.04 L 446.74 133.85 L 445.07 132.49 L 445.43 133.68 C 440.93 136.22 436.43 138.84 431.51 140.49 C 429.96 141.30 428.82 139.58 427.80 138.72 C 427.53 138.46 426.98 137.95 426.71 137.70 C 425.73 136.79 424.82 135.82 423.86 134.91 C 432.36 133.23 440.24 128.44 445.56 121.59 C 447.90 118.61 448.48 114.79 448.71 111.12 C 442.01 111.04 435.31 111.16 428.60 111.03 C 428.62 108.51 428.63 105.98 428.65 103.45 Z" />
<path fill="#05507d" opacity="1.00" d=" M 358.45 110.39 C 370.48 110.37 382.52 110.37 394.55 110.39 C 394.56 112.96 394.55 115.52 394.55 118.09 C 390.24 118.09 385.94 118.06 381.63 118.13 C 384.42 125.41 391.25 129.91 398.18 132.74 C 397.24 133.59 396.31 134.46 395.41 135.34 C 394.22 136.18 393.32 137.68 391.83 137.96 C 387.71 137.14 384.22 134.57 380.99 132.01 C 380.74 131.76 380.24 131.25 379.98 131.00 C 378.80 129.69 377.72 128.29 376.58 126.96 C 372.35 131.93 367.05 136.82 360.41 137.94 C 358.27 136.46 356.51 134.52 354.70 132.66 C 361.59 129.86 368.41 125.38 371.14 118.12 C 366.91 118.07 362.68 118.09 358.45 118.09 C 358.45 115.52 358.43 112.96 358.45 110.39 Z" />
<path fill="#05507d" opacity="1.00" d=" M 487.70 128.39 C 502.57 128.19 517.49 128.99 532.28 127.21 C 532.29 129.61 532.29 132.02 532.29 134.42 C 528.80 134.77 525.30 134.99 521.81 135.21 C 518.83 135.42 515.85 135.54 512.87 135.63 C 512.87 139.02 512.87 142.41 512.87 145.80 C 509.62 145.80 506.37 145.80 503.13 145.80 C 503.12 142.41 503.12 139.02 503.13 135.64 C 497.99 135.61 492.84 135.63 487.71 135.62 C 487.70 133.21 487.70 130.80 487.70 128.39 Z" />
<path fill="#05507d" opacity="1.00" d=" M 173.18 139.20 C 176.60 139.19 180.01 139.19 183.43 139.21 C 183.44 145.29 183.43 151.37 183.44 157.45 C 193.93 157.44 204.42 157.45 214.90 157.44 C 214.91 160.19 214.92 162.93 214.92 165.68 C 194.25 165.69 173.59 165.68 152.92 165.69 C 152.92 162.93 152.93 160.17 153.00 157.42 C 159.72 157.47 166.44 157.44 173.17 157.44 C 173.17 151.36 173.16 145.28 173.18 139.20 Z" />
<path fill="#05507d" opacity="1.00" d=" M 449.05 139.44 C 452.29 139.44 455.53 139.44 458.77 139.46 C 458.78 144.05 458.78 148.65 458.78 153.25 C 466.90 153.25 475.02 153.26 483.13 153.25 C 483.15 155.86 483.15 158.47 483.14 161.09 C 463.40 161.09 443.66 161.10 423.92 161.08 C 423.92 158.47 423.93 155.86 423.94 153.25 C 432.31 153.25 440.67 153.26 449.04 153.25 C 449.04 148.64 449.03 144.04 449.05 139.44 Z" />
<path fill="#05507d" opacity="1.00" d=" M 372.41 144.61 C 380.58 139.46 390.96 139.52 400.09 141.71 C 404.62 143.42 409.43 146.08 411.10 150.93 C 412.63 154.86 411.35 159.25 408.72 162.38 L 409.22 163.17 L 407.57 162.17 L 408.26 163.93 L 407.45 163.51 C 400.94 168.88 391.93 169.58 383.86 168.70 C 377.66 167.79 370.80 165.36 367.65 159.53 C 364.85 154.24 367.47 147.57 372.41 144.61 M 384.29 148.20 C 381.19 148.90 377.40 150.49 376.82 154.02 C 376.34 156.98 378.90 159.34 381.42 160.32 C 385.96 162.00 391.05 162.03 395.70 160.76 C 398.47 159.93 401.50 158.16 401.99 155.04 C 402.11 152.75 400.38 150.79 398.44 149.81 C 394.15 147.49 388.99 147.36 384.29 148.20 Z" />
<path fill="#05507d" opacity="1.00" d=" M 234.70 143.74 C 238.00 143.74 241.31 143.74 244.61 143.75 C 244.62 148.83 244.61 153.92 244.62 159.00 C 256.43 159.09 268.25 158.81 280.05 159.13 C 280.28 161.65 280.15 164.20 280.16 166.73 C 265.01 166.75 249.85 166.76 234.70 166.73 C 234.70 159.07 234.70 151.40 234.70 143.74 Z" />
<path fill="#05507d" opacity="1.00" d=" M 497.93 148.00 C 501.19 148.00 504.46 148.00 507.73 148.00 C 507.72 151.67 507.72 155.33 507.73 159.00 C 519.82 159.00 531.91 159.00 544.00 159.00 C 543.99 161.58 543.99 164.16 544.00 166.75 C 528.64 166.74 513.29 166.75 497.94 166.75 C 497.91 160.50 497.92 154.25 497.93 148.00 Z" />
<path fill="#05507d" opacity="1.00" d=" M 83.99 157.53 C 104.63 157.50 125.28 157.51 145.92 157.53 C 145.92 160.24 145.92 162.96 145.91 165.68 C 125.28 165.70 104.64 165.67 84.01 165.69 C 84.00 162.97 84.00 160.25 83.99 157.53 Z" />
</g>
</svg>
